#!OML:ASF \\sashay\E\basketball\basketball\Project 1\Capture day 1\Session 1\Subject.ASF
:FULLY-SPECIFIED
:DEGREES
1
root -32.1048 14.5001 -10.1968 51.5379 69.5139 47.9301
lowerback 22.8823 -5.07581 -13.8262
upperback 7.77401 -9.01452 -0.94714
thorax -1.9273 -4.45348 8.70505
lowerneck -3.68764 -3.98913 -12.1054
upperneck -17.6209 -2.76164 18.0683
head -3.97666 -1.377 7.86435
rclavicle -8.65707e-014 8.92046e-015
rhumerus -31.6461 -31.7902 -58.4308
rradius 103.74
rwrist -33.1541
rhand -24.1153 29.6555
rfingers 7.12502
rthumb 2.36602 -0.311116
lclavicle -8.65707e-014 8.92046e-015
lhumerus -25.3678 -2.15855 93.7025
lradius 77.1389
lwrist 17.1276
lhand -34.5659 28.9882
lfingers 7.12502
lthumb -7.72581 58.8271
rfemur -47.279 -2.99446 21.4968
rtibia 105.291
rfoot -7.88528 -12.8188
rtoes -21.4584
lfemur -3.55954 12.1562 -20.9355
ltibia 45.8172
lfoot -14.512 -11.8628
ltoes -45.635
2
root -31.515 14.5778 -9.978 50.5144 69.0456 46.3274
lowerback 21.8587 -5.37841 -14.0353
upperback 7.43816 -9.37215 -0.754369
thorax -1.63003 -4.67072 8.97501
lowerneck -3.92241 -3.4589 -12.5908
upperneck -16.8793 -2.14462 17.7403
head -3.82008 -1.01608 7.81166
rclavicle -1.6145e-013 -1.22004e-014
rhumerus -31.2501 -30.076 -60.5337
rradius 105.477
rwrist -33.2699
rhand -25.0045 28.9845
rfingers 7.12502
rthumb 1.50722 -0.989945
lclavicle -1.6145e-013 -1.22004e-014
lhumerus -25.7899 -3.91518 92.9616
lradius 78.992
lwrist 15.1903
lhand -36.4861 26.4126
lfingers 7.12502
lthumb -9.57888 56.1748
rfemur -50.0343 -1.2164 22.0758
rtibia 101.773
rfoot -9.07148 -13.1855
rtoes -16.2861
lfemur -0.408042 12.0528 -20.0606
ltibia 42.8494
lfoot -10.4018 -12.6536
ltoes -36.2089
3
root -30.9274 14.6444 -9.77304 50.1721 68.3229 45.3169
lowerback 20.8136 -5.68921 -14.5186
upperback 7.00089 -9.79798 -0.494837
thorax -1.3407 -4.92358 9.4653
lowerneck -4.03681 -2.89424 -12.9974
upperneck -16.3809 -1.50382 17.0534
head -3.77451 -0.642494 7.63602
rclavicle -1.31248e-013 1.0138e-014
rhumerus -30.7289 -28.3259 -62.7782
rradius 107.086
rwrist -32.5369
rhand -25.9885 28.921
rfingers 7.12502
rthumb 0.556864 -1.05801
lclavicle -1.31248e-013 1.0138e-014
lhumerus -26.5331 -5.1915 92.419
lradius 80.9906
lwrist 13.8804
lhand -37.9168 23.4997
lfingers 7.12502
lthumb -10.959 53.1936
rfemur -52.4423 0.212614 22.0277
rtibia 97.9182
rfoot -9.30598 -13.2905
rtoes -17.352
lfemur 2.66819 11.7288 -19.7399
ltibia 39.4043
lfoot -5.89244 -12.6038
ltoes -31.7986
4
root -30.327 14.717 -9.55549 49.0575 67.3699 43.2024
lowerback 19.0637 -6.04875 -14.2541
upperback 6.69707 -10.0433 -0.803329
thorax -0.834949 -5.08057 8.79325
lowerneck -4.42705 -2.4048 -12.5584
upperneck -15.676 -0.933922 16.4881
head -3.61024 -0.344509 7.33984
rclavicle 1.58655e-013 4.32357e-015
rhumerus -30.5304 -27.0536 -66.0226
rradius 108.612
rwrist -30.6236
rhand -26.9796 29.4099
rfingers 7.12502
rthumb -0.400416 -0.569436
lclavicle 1.58655e-013 4.32357e-015
lhumerus -27.7731 -7.1117 91.0666
lradius 83.3398
lwrist 13.1848
lhand -38.0482 21.7364
lfingers 7.12502
lthumb -11.0858 51.4237
rfemur -54.8263 1.96467 21.9804
rtibia 93.813
rfoot -8.61268 -12.712
rtoes -21.8784
lfemur 5.62854 11.3886 -19.457
ltibia 35.5623
lfoot -1.46083 -12.3245
ltoes -31.409
5
root -29.7133 14.7973 -9.32552 47.7168 66.0998 40.8542
lowerback 17.2371 -6.05954 -14.9964
upperback 6.36157 -9.97205 -0.382981
thorax -0.0454654 -5.14651 9.38981
lowerneck -4.85729 -1.92488 -12.6939
upperneck -15.0587 -0.424158 15.412
head -3.46062 -0.028453 6.98341
rclavicle 1.08182e-013 -2.84511e-014
rhumerus -29.7975 -25.2272 -68.3335
rradius 109.924
rwrist -28.1057
rhand -27.9472 29.9603
rfingers 7.12502
rthumb -1.33487 -0.0152816
lclavicle 1.08182e-013 -2.84511e-014
lhumerus -28.9227 -8.46375 91.0447
lradius 85.4155
lwrist 12.4629
lhand -38.2938 20.5308
lfingers 7.12502
lthumb -11.3227 50.2052
rfemur -56.8438 3.66702 21.7729
rtibia 89.3482
rfoot -7.09753 -11.6092
rtoes -27.8594
lfemur 8.7771 10.7586 -19.5582
ltibia 31.2216
lfoot 2.13502 -12.1739
ltoes -34.9479
6
root -29.0871 14.8794 -9.09593 47.1307 65.0449 39.0311
lowerback 15.2836 -6.2934 -15.1026
upperback 5.91595 -10.0747 -0.113253
thorax 0.592584 -5.26142 9.49008
lowerneck -5.64727 -1.53918 -12.6548
upperneck -14.0755 -0.0191009 14.4353
head -3.12097 0.230654 6.62515
rclavicle -1.01132e-014 -1.86858e-014
rhumerus -29.3992 -23.0972 -70.738
rradius 111.323
rwrist -25.2901
rhand -28.9467 30.4815
rfingers 7.12502
rthumb -2.30023 0.514134
lclavicle -1.01132e-014 -1.86858e-014
lhumerus -30.1078 -9.90165 90.9478
lradius 87.0804
lwrist 12.2375
lhand -38.9991 20.276
lfingers 7.12502
lthumb -12.0028 49.9119
rfemur -58.6716 4.77451 21.693
rtibia 84.495
rfoot -6.67843 -10.4861
rtoes -29.6573
lfemur 11.6893 9.23379 -20.1279
ltibia 26.5974
lfoot 8.21624 -7.97453
ltoes -25.9159
7
root -28.4664 14.9596 -8.89024 45.7325 64.0734 37.6245
lowerback 14.7229 -6.32497 -15.0866
upperback 5.78729 -10.054 0.00413659
thorax 0.762722 -5.26981 9.53421
lowerneck -6.42472 -1.24151 -12.5091
upperneck -13.08 0.281995 13.534
head -2.7604 0.422599 6.2834
rclavicle -8.69683e-014 1.51076e-014
rhumerus -29.2216 -20.5642 -73.0455
rradius 112.785
rwrist -21.8452
rhand -30.4393 30.9719
rfingers 7.12502
rthumb -3.74168 1.025
lclavicle -8.69683e-014 1.51076e-014
lhumerus -31.0548 -11.6019 90.9721
lradius 88.2239
lwrist 12.5978
lhand -39.6997 20.7156
lfingers 7.12502
lthumb -12.6783 50.3108
rfemur -58.8231 5.15785 21.7988
rtibia 79.244
rfoot -7.18761 -9.35402
rtoes -29.7013
lfemur 15.9891 6.95593 -21.1896
ltibia 21.7977
lfoot 8.77859 -3.50254
ltoes -25.8003
8
root -27.8511 15.0106 -8.69538 44.9121 63.2401 36.7878
lowerback 14.338 -6.48276 -15.2128
upperback 5.50148 -10.2618 0.295759
thorax 0.792795 -5.38274 9.89108
lowerneck -7.16898 -0.851988 -12.4692
upperneck -11.9483 0.697892 12.5067
head -2.37974 0.668645 5.92743
rclavicle 4.97956e-014 -6.1822e-014
rhumerus -29.0004 -17.1957 -75.0995
rradius 114.082
rwrist -17.8356
rhand -31.89 31.7213
rfingers 7.12502
rthumb -5.14255 1.80374
lclavicle 4.97956e-014 -6.1822e-014
lhumerus -33.404 -12.3887 91.5315
lradius 90.5035
lwrist 13.1436
lhand -40.0445 20.9655
lfingers 7.12502
lthumb -13.0106 50.5398
rfemur -58.6633 4.89188 22.0878
rtibia 73.7792
rfoot -7.53377 -8.48764
rtoes -33.0003
lfemur 20.4201 4.67286 -22.6244
ltibia 16.9082
lfoot 8.12363 1.7787
ltoes -26.9471
9
root -27.2318 15.047 -8.4989 45.0826 62.378 36.7979
lowerback 13.6101 -6.71295 -15.4441
upperback 5.23813 -10.5202 0.472448
thorax 1.04755 -5.53791 10.12
lowerneck -7.89404 -0.485424 -12.259
upperneck -10.8776 1.09697 11.4895
head -2.0116 0.890653 5.55691
rclavicle 2.96189e-014 -2.68359e-014
rhumerus -28.6812 -13.6949 -77.1734
rradius 115.346
rwrist -13.9774
rhand -32.5658 32.9976
rfingers 7.12502
rthumb -5.79501 3.09688
lclavicle 2.96189e-014 -2.68359e-014
lhumerus -35.4201 -13.211 92.1887
lradius 92.0878
lwrist 14.0727
lhand -40.1423 21.0323
lfingers 7.12502
lthumb -13.105 50.6006
rfemur -58.5712 4.21927 21.9706
rtibia 68.1769
rfoot -8.99007 -6.71277
rtoes -26.95
lfemur 24.7124 3.07727 -24.3448
ltibia 12.0732
lfoot 8.46449 7.50409
ltoes -27.9624
